<svg xmlns="http://www.w3.org/2000/svg" version="1.1" id="prefix__Layer_1" x="0" y="0" viewBox="0 0 1075.9 408.9" xml:space="preserve"><style>.prefix__st0{fill:none;stroke:#0f0f0f;stroke-width:20;stroke-miterlimit:10}.prefix__st1{fill:#0f0f0f}</style><circle class="prefix__st0" cx="204.4" cy="204.4" r="194.4"/><path class="prefix__st0" d="M295.6 115.3h-73.2c-49 0-89.1 40.1-89.1 89.1 0 49 40.1 89.1 89.1 89.1h73.2"/><circle class="prefix__st1" cx="223.7" cy="204.4" r="14.8"/><circle class="prefix__st1" cx="280.8" cy="204.4" r="14.8"/><path d="M517.5 220.1h16.1c-2.8 6.8-7.8 12.5-14.1 16.2-6.2 3.9-13.3 6-20.7 6-10.4.2-20.4-4-27.5-11.6-7.5-7.3-11.6-17.4-11.5-27.8-.1-10.3 4-20.2 11.4-27.4 7.6-7.6 16.6-11.5 27.1-11.5 7.6 0 15 2.1 21.4 6.2 6.4 3.9 11.4 9.7 14.2 16.6h-15.8c-2.3-2.9-5.3-5.2-8.7-6.8-3.4-1.6-7.2-2.5-11-2.5-6.6-.1-13 2.7-17.5 7.6-4.7 4.9-7.4 11.4-7.2 18.2 0 6.7 2.6 13.1 7.3 17.8 5 5.1 10.7 7.6 17.4 7.6 3.5 0 7-.8 10.1-2.3 3.5-1.3 6.5-3.5 9-6.3zM578 164.1c21.6.1 39.1 17.6 39.1 39.3 0 21.5-17.5 39-39 39-10.4.1-20.3-4-27.6-11.4-7.5-7.2-11.7-17.2-11.5-27.6-.1-21.8 17.4-39.3 39-39.3zm0 13.5c-6.7-.1-13.1 2.6-17.8 7.4-4.8 4.7-7.4 11.2-7.3 18-.1 6.8 2.6 13.3 7.4 18.1 4.5 4.9 11 7.7 17.7 7.6 6.7 0 13.1-2.7 17.7-7.6 9.9-10 9.9-26.1.1-36.2-4.6-4.8-11.1-7.5-17.8-7.3zM663.3 164.1c21.6.1 39.1 17.6 39.1 39.3 0 21.5-17.5 39-39 39-10.4.1-20.3-4-27.6-11.4-7.5-7.2-11.7-17.2-11.5-27.6-.2-10.5 4-20.5 11.5-27.8 7.1-7.5 17.1-11.7 27.5-11.5zm0 13.5c-6.7-.1-13.1 2.6-17.8 7.4-4.8 4.7-7.4 11.2-7.3 18-.1 6.8 2.6 13.3 7.4 18.1 4.5 4.9 11 7.7 17.7 7.6 6.7 0 13.1-2.7 17.7-7.6 9.9-10 9.9-26.1.1-36.2-4.6-4.8-11.1-7.5-17.8-7.3zM713.3 240.6v-74.9h14v61.5h22.9v13.4h-36.9zM917.1 208.4h15.7l-7.8-22z"/><path d="M784.7 153.4v102.2h291.2V153.4H784.7zm98 87h-13.4v-54.6l-18.8 54.6H839l-18.8-54.6v54.6h-13.5v-72.8h18.4l19.5 55.6 19.7-55.6h18.4v72.8zm63.3 0l-7.9-18.8h-25.7l-8.1 18.8h-14.9l30.3-72.8h10.5l30.6 72.8H946zm56.6-59.8H989v59.6h-13.4v-59.6h-13.4v-13.1h40.5l-.1 13.1zm46 0h-25.5v16.7h24.5v13.1h-24.5v16.8h25.5v13.1h-39.1v-72.8h39.1v13.1z"/></svg>